<?xml version="1.0" encoding="utf-8"?>
<!-- Svg Vector Icons : http://www.onlinewebfonts.com/icon -->
<!DOCTYPE svg PUBLIC "-//W3C//DTD SVG 1.1//EN" "http://www.w3.org/Graphics/SVG/1.1/DTD/svg11.dtd">
<svg version="1.1" xmlns="http://www.w3.org/2000/svg" xmlns:xlink="http://www.w3.org/1999/xlink" x="0px" y="0px" viewBox="0 0 256 256" enable-background="new 0 0 256 256" xml:space="preserve">
<metadata> Svg Vector Icons : http://www.onlinewebfonts.com/icon </metadata>
<g><g><path fill="#000000" d="M128,10c16.2,0,31.5,3.1,45.9,9.3c14.4,6.2,26.9,14.7,37.5,25.4c10.6,10.7,19,23.2,25.2,37.5c6.2,14.3,9.3,29.5,9.3,45.8c0,16.4-3.1,31.7-9.3,46c-6.2,14.3-14.6,26.8-25.2,37.5c-10.6,10.7-23.1,19.1-37.5,25.2c-14.4,6.1-29.7,9.2-45.9,9.2c-16.4,0-31.7-3.1-46-9.2c-14.3-6.1-26.8-14.5-37.5-25.3c-10.7-10.7-19.1-23.2-25.2-37.5c-6.1-14.3-9.2-29.6-9.2-46c0-16.2,3.1-31.5,9.2-45.8c6.1-14.3,14.5-26.8,25.2-37.5C55.1,34,67.6,25.5,82,19.3C96.3,13.1,111.6,10,128,10L128,10z M127.2,42.4c-11.7,0-22.7,2.2-32.9,6.6C84,53.4,75,59.5,67.4,67.1C59.7,74.8,53.7,83.7,49.3,94c-4.4,10.3-6.6,21.2-6.6,32.9c0,9,1.3,17.4,3.8,25.2c2.5,7.8,6.1,15.2,10.8,22L174.4,57.3c-6.8-4.7-14.2-8.3-22.1-10.9C144.4,43.7,136,42.4,127.2,42.4L127.2,42.4z M127.2,211.4c11.5,0,22.4-2.2,32.7-6.6c10.3-4.4,19.2-10.5,26.9-18.1c7.7-7.7,13.7-16.6,18.1-26.9c4.4-10.3,6.6-21.2,6.6-32.9c0-16.7-4.4-32.1-13.2-45.9L81.3,197.9c6.8,4.3,14,7.7,21.6,10S118.6,211.4,127.2,211.4L127.2,211.4z"/></g></g>
</svg>